# xmcd
#
# Track frame offsets: 
#        150
#        1222
#        23380
#        29376
#        82264
#        96531
#        140513
#        152061
#        181895
#
# Disc length: 2479 seconds
#
# Revision: 0
# Processed by: cddbd v1.5.1PL0 Copyright (c) Steve Scherf et al.
# Submitted via: ExactAudioCopy v0.95a5
#
DISCID=6809ad09
DTITLE=Hobo Blues Band - Tiltott gyümölcs II.
DYEAR=1988
DGENRE=Blues and Rock
TTITLE0=Halált&aacute'nc ballada (Faludy György - részlet)
TTITLE1=Ballada a senki fiáról (Faludy György)
TTITLE2=Zöld sárga (Baksa Soós János)
TTITLE3=Elszállt egy hajó a szélben (Baksa Soós János - Kex)
TTITLE4=Bevonuló baka blues
TTITLE5=Vörös ház (Jimi Hendrix)
TTITLE6=Bye bye Johnny
TTITLE7=Get up, stand' up (Bob Marley)
TTITLE8=Bohóc blues
EXTD=
EXTT0=
EXTT1=
EXTT2=
EXTT3=
EXTT4=
EXTT5=
EXTT6=
EXTT7=
EXTT8=
PLAYORDER=
